<svg width="22" height="41" viewBox="0 0 22 41" fill="none" xmlns="http://www.w3.org/2000/svg">
<path d="M10.5547 0.394531C13.6146 0.394531 16.0234 1.07161 17.7812 2.42578C19.5521 3.77995 20.4375 5.66146 20.4375 8.07031C20.4375 10.0104 19.9427 11.5469 18.9531 12.6797C17.9635 13.7995 16.5508 14.5091 14.7148 14.8086V14.9258C17.1628 15.2383 18.9857 16.026 20.1836 17.2891C21.3945 18.5391 22 20.2969 22 22.5625C22 25.2969 21.1471 27.4518 19.4414 29.0273C17.7487 30.6029 15.418 31.3906 12.4492 31.3906C9.84505 31.3906 7.72266 30.9805 6.08203 30.1602V40.6094H0.125V9.59375C0.125 6.67708 1.03646 4.41797 2.85938 2.81641C4.68229 1.20182 7.2474 0.394531 10.5547 0.394531ZM10.3984 5.04297C7.52083 5.04297 6.08203 6.7487 6.08203 10.1602V25.2773C6.70703 25.681 7.47526 26.013 8.38672 26.2734C9.29818 26.5208 10.1445 26.6445 10.9258 26.6445C12.5924 26.6445 13.8294 26.2409 14.6367 25.4336C15.444 24.6263 15.8477 23.4935 15.8477 22.0352C15.8477 20.6029 15.4115 19.5156 14.5391 18.7734C13.6797 18.0182 12.4232 17.6406 10.7695 17.6406H9.36328V12.9141H10.3984C11.6875 12.9141 12.6901 12.5625 13.4062 11.8594C14.1224 11.1432 14.4805 10.1211 14.4805 8.79297C14.4805 7.59505 14.1224 6.67057 13.4062 6.01953C12.6901 5.36849 11.6875 5.04297 10.3984 5.04297Z" fill="black"/>
</svg>
