<svg xmlns="http://www.w3.org/2000/svg" viewBox="0 0 510.2 141.7"><path d="M367.1 7.2l-26.9 127.1h9.2l25-118.5h9.8l-25 118.5h9.2L395.2 7.2zM463.3 23.9c1.3-5.8.6-10.1-1.8-12.9-2.1-2.4-5.3-3.7-9.5-3.7h-12.3l-26.9 127.1h9.2l6.5-30.8h4c9 0 15.1-5.8 17.4-16.1l13.4-63.6zm-22.2 62.9c-1.6 7.1-4.8 8.1-7.4 8.1h-3.4L447 15.8h3.9c1.4 0 2.6.3 3.1 1 1 1 1 3.2.5 6.4l-13.4 63.6zM421.8 7.2h-9.1l-38.2 127.1h9.2l5.7-18.7h10.1l-2.2 18.7h9.2L422.2 7.2h-.4zm-21.2 99.9h-8.5l20.6-77.4-12.1 77.4zM496.4 7.2l-24 59.5L485 7.2h-9.2l-26.9 127.1h9.2l14.1-66.6v66.6h9.3V66.9l24.9-59.7z"/></svg>
