<svg xmlns="http://www.w3.org/2000/svg" width="170" height="130"><path fill="#000" fill-rule="nonzero" d="M29.1 1.2L2.2 128.3h9.2l25-118.5h9.8l-25 118.5h9.2L57.2 1.2H29.1zm96.2 16.7c1.3-5.8.6-10.1-1.8-12.9-2.1-2.4-5.3-3.7-9.5-3.7h-12.3L74.8 128.4H84l6.5-30.8h4c9 0 15.1-5.8 17.4-16.1l13.4-63.6zm-22.2 62.9c-1.6 7.1-4.8 8.1-7.4 8.1h-3.4L109 9.8h3.9c1.4 0 2.6.3 3.1 1 1 1 1 3.2.5 6.4l-13.4 63.6zM83.8 1.2h-9.1L36.5 128.3h9.2l5.7-18.7h10.1l-2.2 18.7h9.2L84.2 1.2h-.4zm-21.2 99.9h-8.5l20.6-77.4-12.1 77.4zm95.8-99.9l-24 59.5L147 1.2h-9.2l-26.9 127.1h9.2l14.1-66.6v66.6h9.3V60.9l24.9-59.7h-10z"/></svg>
